<mxfile host="Electron" modified="2021-12-03T19:10:56.347Z" agent="5.0 (X11; Linux x86_64) AppleWebKit/537.36 (KHTML, like Gecko) draw.io/15.8.4 Chrome/91.0.4472.164 Electron/13.6.2 Safari/537.36" etag="7auTW3QsgHrEeH870Rfu" compressed="false" version="15.8.4" type="device">
  <diagram id="aaRBlbIfEOCTvdF3LA9z" name="Page-1">
    <mxGraphModel dx="1185" dy="732" grid="1" gridSize="3.937" guides="1" tooltips="1" connect="1" arrows="1" fold="1" page="1" pageScale="1" pageWidth="413" pageHeight="291" math="0" shadow="0">
      <root>
        <mxCell id="0" />
        <mxCell id="1" parent="0" />
        <mxCell id="eiOEyKE2oN8kCugcmJj7-1071" value="" style="aspect=fixed;pointerEvents=0;fontSize=1;strokeWidth=0.72;opacity=33;fillColor=#d5e8d4;strokeColor=#82b366;spacing=0;fontColor=none;noLabel=1;recursiveResize=0;connectable=0;allowArrows=0;rotatable=0;cloneable=0;deletable=0;resizable=0;movable=0;expand=0;" parent="1" vertex="1">
          <mxGeometry x="31.42999999999998" y="31.499999999999986" width="78.6" height="78.74" as="geometry" />
        </mxCell>
        <mxCell id="eiOEyKE2oN8kCugcmJj7-1133" value="5ãŽœ" style="text;strokeColor=none;fillColor=#eeeeee;align=center;verticalAlign=middle;spacingLeft=0;spacingRight=0;overflow=hidden;points=[[0,0.5],[1,0.5]];portConstraint=eastwest;rotatable=0;labelBackgroundColor=none;pointerEvents=0;fontSize=8;opacity=66;strokeWidth=0.5;spacing=-1;textOpacity=66;fontStyle=2;fontFamily=Verdana;spacingBottom=0;spacingTop=0;labelPosition=center;verticalLabelPosition=middle;connectable=0;allowArrows=0;recursiveResize=0;expand=0;movable=0;resizable=0;cloneable=0;deletable=0;" parent="1" vertex="1">
          <mxGeometry x="91.3384" y="101.1809" width="18.1102" height="7.0866" as="geometry" />
        </mxCell>
        <mxCell id="eiOEyKE2oN8kCugcmJj7-1076" value="" style="line;strokeWidth=0.72;pointerEvents=0;fontSize=1;opacity=33;fillColor=none;strokeColor=#82b366;spacing=0;labelBackgroundColor=none;fontColor=none;noLabel=1;connectable=0;allowArrows=0;resizable=0;rotatable=0;recursiveResize=0;expand=0;deletable=0;cloneable=0;spacingTop=0;movable=0;" parent="1" vertex="1">
          <mxGeometry x="31.42999999999998" y="31.499999999999986" width="78.74" height="7.87" as="geometry" />
        </mxCell>
        <mxCell id="eiOEyKE2oN8kCugcmJj7-1078" value="" style="line;strokeWidth=0.72;pointerEvents=0;fontSize=1;opacity=33;fillColor=none;strokeColor=#82b366;spacing=0;labelBackgroundColor=none;fontColor=none;noLabel=1;connectable=0;allowArrows=0;resizable=0;rotatable=0;recursiveResize=0;expand=0;deletable=0;cloneable=0;rotation=90;spacingTop=0;movable=0;" parent="1" vertex="1">
          <mxGeometry x="-4.003000000000014" y="66.93699999999998" width="78.74" height="7.87" as="geometry" />
        </mxCell>
        <mxCell id="eiOEyKE2oN8kCugcmJj7-1079" value="" style="line;strokeWidth=0.72;pointerEvents=0;fontSize=1;opacity=33;fillColor=none;strokeColor=#82b366;spacing=0;labelBackgroundColor=none;fontColor=none;noLabel=1;connectable=0;allowArrows=0;resizable=0;rotatable=0;recursiveResize=0;expand=0;deletable=0;cloneable=0;spacingTop=0;movable=0;" parent="1" vertex="1">
          <mxGeometry x="31.286999999999978" y="35.43699999999998" width="78.74" height="7.87" as="geometry" />
        </mxCell>
        <mxCell id="eiOEyKE2oN8kCugcmJj7-1080" value="" style="line;strokeWidth=0.72;pointerEvents=0;fontSize=1;opacity=33;fillColor=none;strokeColor=#82b366;spacing=0;labelBackgroundColor=none;fontColor=none;noLabel=1;connectable=0;allowArrows=0;resizable=0;rotatable=0;recursiveResize=0;expand=0;deletable=0;cloneable=0;spacingTop=0;movable=0;" parent="1" vertex="1">
          <mxGeometry x="31.283999999999978" y="39.37399999999998" width="78.74" height="7.87" as="geometry" />
        </mxCell>
        <mxCell id="eiOEyKE2oN8kCugcmJj7-1081" value="" style="line;strokeWidth=0.72;pointerEvents=0;fontSize=1;opacity=33;fillColor=none;strokeColor=#82b366;spacing=0;labelBackgroundColor=none;fontColor=none;noLabel=1;connectable=0;allowArrows=0;resizable=0;rotatable=0;recursiveResize=0;expand=0;deletable=0;cloneable=0;spacingTop=0;movable=0;" parent="1" vertex="1">
          <mxGeometry x="31.43099999999997" y="43.31099999999998" width="78.74" height="7.87" as="geometry" />
        </mxCell>
        <mxCell id="eiOEyKE2oN8kCugcmJj7-1090" value="" style="line;strokeWidth=0.72;pointerEvents=0;fontSize=1;opacity=33;fillColor=none;strokeColor=#82b366;spacing=0;labelBackgroundColor=none;fontColor=none;noLabel=1;connectable=0;allowArrows=0;resizable=0;rotatable=0;recursiveResize=0;expand=0;deletable=0;cloneable=0;spacingTop=0;movable=0;" parent="1" vertex="1">
          <mxGeometry x="31.35799999999996" y="47.247999999999976" width="78.74" height="7.87" as="geometry" />
        </mxCell>
        <mxCell id="eiOEyKE2oN8kCugcmJj7-1091" value="" style="line;strokeWidth=0.72;pointerEvents=0;fontSize=1;opacity=33;fillColor=none;strokeColor=#82b366;spacing=0;labelBackgroundColor=none;fontColor=none;noLabel=1;connectable=0;allowArrows=0;resizable=0;rotatable=0;recursiveResize=0;expand=0;deletable=0;cloneable=0;spacingTop=0;movable=0;" parent="1" vertex="1">
          <mxGeometry x="31.43499999999996" y="51.184999999999974" width="78.74" height="7.87" as="geometry" />
        </mxCell>
        <mxCell id="eiOEyKE2oN8kCugcmJj7-1092" value="" style="line;strokeWidth=0.72;pointerEvents=0;fontSize=1;opacity=33;fillColor=none;strokeColor=#82b366;spacing=0;labelBackgroundColor=none;fontColor=none;noLabel=1;connectable=0;allowArrows=0;resizable=0;rotatable=0;recursiveResize=0;expand=0;deletable=0;cloneable=0;spacingTop=0;movable=0;" parent="1" vertex="1">
          <mxGeometry x="31.43199999999996" y="55.12199999999997" width="78.74" height="7.87" as="geometry" />
        </mxCell>
        <mxCell id="eiOEyKE2oN8kCugcmJj7-1093" value="" style="line;strokeWidth=0.72;pointerEvents=0;fontSize=1;opacity=33;fillColor=none;strokeColor=#82b366;spacing=0;labelBackgroundColor=none;fontColor=none;noLabel=1;connectable=0;allowArrows=0;resizable=0;rotatable=0;recursiveResize=0;expand=0;deletable=0;cloneable=0;spacingTop=0;movable=0;" parent="1" vertex="1">
          <mxGeometry x="31.43899999999995" y="59.05899999999997" width="78.74" height="7.87" as="geometry" />
        </mxCell>
        <mxCell id="eiOEyKE2oN8kCugcmJj7-1094" value="" style="line;strokeWidth=0.72;pointerEvents=0;fontSize=1;opacity=33;fillColor=none;strokeColor=#82b366;spacing=0;labelBackgroundColor=none;fontColor=none;noLabel=1;connectable=0;allowArrows=0;resizable=0;rotatable=0;recursiveResize=0;expand=0;deletable=0;cloneable=0;spacingTop=0;movable=0;" parent="1" vertex="1">
          <mxGeometry x="31.425999999999945" y="62.99599999999997" width="78.74" height="7.87" as="geometry" />
        </mxCell>
        <mxCell id="eiOEyKE2oN8kCugcmJj7-1095" value="" style="line;strokeWidth=0.72;pointerEvents=0;fontSize=1;opacity=33;fillColor=none;strokeColor=#82b366;spacing=0;labelBackgroundColor=none;fontColor=none;noLabel=1;connectable=0;allowArrows=0;resizable=0;rotatable=0;recursiveResize=0;expand=0;deletable=0;cloneable=0;spacingTop=0;movable=0;" parent="1" vertex="1">
          <mxGeometry x="31.44299999999994" y="66.93299999999996" width="78.74" height="7.87" as="geometry" />
        </mxCell>
        <mxCell id="eiOEyKE2oN8kCugcmJj7-1096" value="" style="line;strokeWidth=0.72;pointerEvents=0;fontSize=1;opacity=33;fillColor=none;strokeColor=#82b366;spacing=0;labelBackgroundColor=none;fontColor=none;noLabel=1;connectable=0;allowArrows=0;resizable=0;rotatable=0;recursiveResize=0;expand=0;deletable=0;cloneable=0;spacingTop=0;movable=0;" parent="1" vertex="1">
          <mxGeometry x="31.43999999999994" y="70.86999999999996" width="78.74" height="7.87" as="geometry" />
        </mxCell>
        <mxCell id="eiOEyKE2oN8kCugcmJj7-1097" value="" style="line;strokeWidth=0.72;pointerEvents=0;fontSize=1;opacity=33;fillColor=none;strokeColor=#82b366;spacing=0;labelBackgroundColor=none;fontColor=none;noLabel=1;connectable=0;allowArrows=0;resizable=0;rotatable=0;recursiveResize=0;expand=0;deletable=0;cloneable=0;spacingTop=0;movable=0;" parent="1" vertex="1">
          <mxGeometry x="31.44699999999993" y="74.80699999999996" width="78.74" height="7.87" as="geometry" />
        </mxCell>
        <mxCell id="eiOEyKE2oN8kCugcmJj7-1098" value="" style="line;strokeWidth=0.72;pointerEvents=0;fontSize=1;opacity=33;fillColor=none;strokeColor=#82b366;spacing=0;labelBackgroundColor=none;fontColor=none;noLabel=1;connectable=0;allowArrows=0;resizable=0;rotatable=0;recursiveResize=0;expand=0;deletable=0;cloneable=0;spacingTop=0;movable=0;" parent="1" vertex="1">
          <mxGeometry x="31.44399999999993" y="78.74399999999996" width="78.74" height="7.87" as="geometry" />
        </mxCell>
        <mxCell id="eiOEyKE2oN8kCugcmJj7-1099" value="" style="line;strokeWidth=0.72;pointerEvents=0;fontSize=1;opacity=33;fillColor=none;strokeColor=#82b366;spacing=0;labelBackgroundColor=none;fontColor=none;noLabel=1;connectable=0;allowArrows=0;resizable=0;rotatable=0;recursiveResize=0;expand=0;deletable=0;cloneable=0;spacingTop=0;movable=0;" parent="1" vertex="1">
          <mxGeometry x="31.450999999999922" y="82.68099999999995" width="78.74" height="7.87" as="geometry" />
        </mxCell>
        <mxCell id="eiOEyKE2oN8kCugcmJj7-1100" value="" style="line;strokeWidth=0.72;pointerEvents=0;fontSize=1;opacity=33;fillColor=none;strokeColor=#82b366;spacing=0;labelBackgroundColor=none;fontColor=none;noLabel=1;connectable=0;allowArrows=0;resizable=0;rotatable=0;recursiveResize=0;expand=0;deletable=0;cloneable=0;spacingTop=0;movable=0;" parent="1" vertex="1">
          <mxGeometry x="31.447999999999922" y="86.61799999999995" width="78.74" height="7.87" as="geometry" />
        </mxCell>
        <mxCell id="eiOEyKE2oN8kCugcmJj7-1101" value="" style="line;strokeWidth=0.72;pointerEvents=0;fontSize=1;opacity=33;fillColor=none;strokeColor=#82b366;spacing=0;labelBackgroundColor=none;fontColor=none;noLabel=1;connectable=0;allowArrows=0;resizable=0;rotatable=0;recursiveResize=0;expand=0;deletable=0;cloneable=0;spacingTop=0;movable=0;" parent="1" vertex="1">
          <mxGeometry x="31.284999999999926" y="90.55499999999995" width="78.74" height="7.87" as="geometry" />
        </mxCell>
        <mxCell id="eiOEyKE2oN8kCugcmJj7-1102" value="" style="line;strokeWidth=0.72;pointerEvents=0;fontSize=1;opacity=33;fillColor=none;strokeColor=#82b366;spacing=0;labelBackgroundColor=none;fontColor=none;noLabel=1;connectable=0;allowArrows=0;resizable=0;rotatable=0;recursiveResize=0;expand=0;deletable=0;cloneable=0;spacingTop=0;movable=0;" parent="1" vertex="1">
          <mxGeometry x="31.451999999999927" y="94.49199999999995" width="78.74" height="7.87" as="geometry" />
        </mxCell>
        <mxCell id="eiOEyKE2oN8kCugcmJj7-1103" value="" style="line;strokeWidth=0.72;pointerEvents=0;fontSize=1;opacity=33;fillColor=none;strokeColor=#82b366;spacing=0;labelBackgroundColor=none;fontColor=none;noLabel=1;connectable=0;allowArrows=0;resizable=0;rotatable=0;recursiveResize=0;expand=0;deletable=0;cloneable=0;spacingTop=0;movable=0;" parent="1" vertex="1">
          <mxGeometry x="31.448999999999927" y="98.42899999999995" width="78.74" height="7.87" as="geometry" />
        </mxCell>
        <mxCell id="eiOEyKE2oN8kCugcmJj7-1104" value="" style="line;strokeWidth=0.72;pointerEvents=0;fontSize=1;opacity=33;fillColor=none;strokeColor=#82b366;spacing=0;labelBackgroundColor=none;fontColor=none;noLabel=1;connectable=0;allowArrows=0;resizable=0;rotatable=0;recursiveResize=0;expand=0;deletable=0;cloneable=0;spacingTop=0;movable=0;" parent="1" vertex="1">
          <mxGeometry x="31.455999999999918" y="102.36599999999994" width="78.74" height="7.87" as="geometry" />
        </mxCell>
        <mxCell id="eiOEyKE2oN8kCugcmJj7-1105" value="" style="line;strokeWidth=0.72;pointerEvents=0;fontSize=1;opacity=66;fillColor=none;strokeColor=#82b366;spacing=0;labelBackgroundColor=none;fontColor=none;noLabel=1;connectable=0;allowArrows=0;resizable=0;rotatable=0;recursiveResize=0;expand=0;deletable=0;cloneable=0;spacingTop=0;movable=0;" parent="1" vertex="1">
          <mxGeometry x="23.56" y="106.3" width="94.55" height="7.87" as="geometry" />
        </mxCell>
        <mxCell id="eiOEyKE2oN8kCugcmJj7-1106" value="" style="line;strokeWidth=0.72;pointerEvents=0;fontSize=1;opacity=33;fillColor=none;strokeColor=#82b366;spacing=0;labelBackgroundColor=none;fontColor=none;noLabel=1;connectable=0;allowArrows=0;resizable=0;rotatable=0;recursiveResize=0;expand=0;deletable=0;cloneable=0;rotation=90;spacingTop=0;movable=0;" parent="1" vertex="1">
          <mxGeometry x="-0.06600000000001671" y="66.93399999999998" width="78.74" height="7.87" as="geometry" />
        </mxCell>
        <mxCell id="eiOEyKE2oN8kCugcmJj7-1107" value="" style="line;strokeWidth=0.72;pointerEvents=0;fontSize=1;opacity=33;fillColor=none;strokeColor=#82b366;spacing=0;labelBackgroundColor=none;fontColor=none;noLabel=1;connectable=0;allowArrows=0;resizable=0;rotatable=0;recursiveResize=0;expand=0;deletable=0;cloneable=0;rotation=90;spacingTop=0;movable=0;" parent="1" vertex="1">
          <mxGeometry x="3.870999999999981" y="66.94099999999997" width="78.74" height="7.87" as="geometry" />
        </mxCell>
        <mxCell id="eiOEyKE2oN8kCugcmJj7-1108" value="" style="line;strokeWidth=0.72;pointerEvents=0;fontSize=1;opacity=33;fillColor=none;strokeColor=#82b366;spacing=0;labelBackgroundColor=none;fontColor=none;noLabel=1;connectable=0;allowArrows=0;resizable=0;rotatable=0;recursiveResize=0;expand=0;deletable=0;cloneable=0;rotation=90;spacingTop=0;movable=0;" parent="1" vertex="1">
          <mxGeometry x="7.8079999999999785" y="66.93799999999997" width="78.74" height="7.87" as="geometry" />
        </mxCell>
        <mxCell id="eiOEyKE2oN8kCugcmJj7-1109" value="" style="line;strokeWidth=0.72;pointerEvents=0;fontSize=1;opacity=33;fillColor=none;strokeColor=#82b366;spacing=0;labelBackgroundColor=none;fontColor=none;noLabel=1;connectable=0;allowArrows=0;resizable=0;rotatable=0;recursiveResize=0;expand=0;deletable=0;cloneable=0;rotation=90;spacingTop=0;movable=0;" parent="1" vertex="1">
          <mxGeometry x="11.744999999999976" y="66.94499999999996" width="78.74" height="7.87" as="geometry" />
        </mxCell>
        <mxCell id="eiOEyKE2oN8kCugcmJj7-1110" value="" style="line;strokeWidth=0.72;pointerEvents=0;fontSize=1;opacity=33;fillColor=none;strokeColor=#82b366;spacing=0;labelBackgroundColor=none;fontColor=none;noLabel=1;connectable=0;allowArrows=0;resizable=0;rotatable=0;recursiveResize=0;expand=0;deletable=0;cloneable=0;rotation=90;spacingTop=0;movable=0;" parent="1" vertex="1">
          <mxGeometry x="15.681999999999974" y="66.94199999999996" width="78.74" height="7.87" as="geometry" />
        </mxCell>
        <mxCell id="eiOEyKE2oN8kCugcmJj7-1111" value="" style="line;strokeWidth=0.72;pointerEvents=0;fontSize=1;opacity=33;fillColor=none;strokeColor=#82b366;spacing=0;labelBackgroundColor=none;fontColor=none;noLabel=1;connectable=0;allowArrows=0;resizable=0;rotatable=0;recursiveResize=0;expand=0;deletable=0;cloneable=0;rotation=90;spacingTop=0;movable=0;" parent="1" vertex="1">
          <mxGeometry x="19.61899999999997" y="66.94899999999996" width="78.74" height="7.87" as="geometry" />
        </mxCell>
        <mxCell id="eiOEyKE2oN8kCugcmJj7-1112" value="" style="line;strokeWidth=0.72;pointerEvents=0;fontSize=1;opacity=33;fillColor=none;strokeColor=#82b366;spacing=0;labelBackgroundColor=none;fontColor=none;noLabel=1;connectable=0;allowArrows=0;resizable=0;rotatable=0;recursiveResize=0;expand=0;deletable=0;cloneable=0;rotation=90;spacingTop=0;movable=0;" parent="1" vertex="1">
          <mxGeometry x="23.55599999999997" y="66.92599999999996" width="78.74" height="7.87" as="geometry" />
        </mxCell>
        <mxCell id="eiOEyKE2oN8kCugcmJj7-1113" value="" style="line;strokeWidth=0.72;pointerEvents=0;fontSize=1;opacity=33;fillColor=none;strokeColor=#82b366;spacing=0;labelBackgroundColor=none;fontColor=none;noLabel=1;connectable=0;allowArrows=0;resizable=0;rotatable=0;recursiveResize=0;expand=0;deletable=0;cloneable=0;rotation=90;spacingTop=0;movable=0;" parent="1" vertex="1">
          <mxGeometry x="27.48899999999999" y="66.929" width="78.74" height="7.87" as="geometry" />
        </mxCell>
        <mxCell id="eiOEyKE2oN8kCugcmJj7-1114" value="" style="line;strokeWidth=0.72;pointerEvents=0;fontSize=1;opacity=33;fillColor=none;strokeColor=#82b366;spacing=0;labelBackgroundColor=none;fontColor=none;noLabel=1;connectable=0;allowArrows=0;resizable=0;rotatable=0;recursiveResize=0;expand=0;deletable=0;cloneable=0;rotation=90;spacingTop=0;movable=0;" parent="1" vertex="1">
          <mxGeometry x="31.45599999999999" y="66.926" width="78.74" height="7.87" as="geometry" />
        </mxCell>
        <mxCell id="eiOEyKE2oN8kCugcmJj7-1115" value="" style="line;strokeWidth=0.72;pointerEvents=0;fontSize=1;opacity=33;fillColor=none;strokeColor=#82b366;spacing=0;labelBackgroundColor=none;fontColor=none;noLabel=1;connectable=0;allowArrows=0;resizable=0;rotatable=0;recursiveResize=0;expand=0;deletable=0;cloneable=0;rotation=90;spacingTop=0;movable=0;" parent="1" vertex="1">
          <mxGeometry x="35.39299999999999" y="66.953" width="78.74" height="7.87" as="geometry" />
        </mxCell>
        <mxCell id="eiOEyKE2oN8kCugcmJj7-1116" value="" style="line;strokeWidth=0.72;pointerEvents=0;fontSize=1;opacity=33;fillColor=none;strokeColor=#82b366;spacing=0;labelBackgroundColor=none;fontColor=none;noLabel=1;connectable=0;allowArrows=0;resizable=0;rotatable=0;recursiveResize=0;expand=0;deletable=0;cloneable=0;rotation=90;spacingTop=0;movable=0;" parent="1" vertex="1">
          <mxGeometry x="39.329999999999984" y="66.95" width="78.74" height="7.87" as="geometry" />
        </mxCell>
        <mxCell id="eiOEyKE2oN8kCugcmJj7-1117" value="" style="line;strokeWidth=0.72;pointerEvents=0;fontSize=1;opacity=33;fillColor=none;strokeColor=#82b366;spacing=0;labelBackgroundColor=none;fontColor=none;noLabel=1;connectable=0;allowArrows=0;resizable=0;rotatable=0;recursiveResize=0;expand=0;deletable=0;cloneable=0;rotation=90;spacingTop=0;movable=0;" parent="1" vertex="1">
          <mxGeometry x="43.26699999999998" y="66.957" width="78.74" height="7.87" as="geometry" />
        </mxCell>
        <mxCell id="eiOEyKE2oN8kCugcmJj7-1118" value="" style="line;strokeWidth=0.72;pointerEvents=0;fontSize=1;opacity=33;fillColor=none;strokeColor=#82b366;spacing=0;labelBackgroundColor=none;fontColor=none;noLabel=1;connectable=0;allowArrows=0;resizable=0;rotatable=0;recursiveResize=0;expand=0;deletable=0;cloneable=0;rotation=90;spacingTop=0;movable=0;" parent="1" vertex="1">
          <mxGeometry x="47.20399999999998" y="66.954" width="78.74" height="7.87" as="geometry" />
        </mxCell>
        <mxCell id="eiOEyKE2oN8kCugcmJj7-1119" value="" style="line;strokeWidth=0.72;pointerEvents=0;fontSize=1;opacity=33;fillColor=none;strokeColor=#82b366;spacing=0;labelBackgroundColor=none;fontColor=none;noLabel=1;connectable=0;allowArrows=0;resizable=0;rotatable=0;recursiveResize=0;expand=0;deletable=0;cloneable=0;rotation=90;spacingTop=0;movable=0;" parent="1" vertex="1">
          <mxGeometry x="51.14099999999999" y="66.96099999999998" width="78.74" height="7.87" as="geometry" />
        </mxCell>
        <mxCell id="eiOEyKE2oN8kCugcmJj7-1120" value="" style="line;strokeWidth=0.72;pointerEvents=0;fontSize=1;opacity=33;fillColor=none;strokeColor=#82b366;spacing=0;labelBackgroundColor=none;fontColor=none;noLabel=1;connectable=0;allowArrows=0;resizable=0;rotatable=0;recursiveResize=0;expand=0;deletable=0;cloneable=0;rotation=90;spacingTop=0;movable=0;" parent="1" vertex="1">
          <mxGeometry x="55.078" y="66.95799999999998" width="78.74" height="7.87" as="geometry" />
        </mxCell>
        <mxCell id="eiOEyKE2oN8kCugcmJj7-1121" value="" style="line;strokeWidth=0.72;pointerEvents=0;fontSize=1;opacity=33;fillColor=none;strokeColor=#82b366;spacing=0;labelBackgroundColor=none;fontColor=none;noLabel=1;connectable=0;allowArrows=0;resizable=0;rotatable=0;recursiveResize=0;expand=0;deletable=0;cloneable=0;rotation=90;spacingTop=0;movable=0;" parent="1" vertex="1">
          <mxGeometry x="59.015000000000015" y="66.96499999999997" width="78.74" height="7.87" as="geometry" />
        </mxCell>
        <mxCell id="eiOEyKE2oN8kCugcmJj7-1122" value="" style="line;strokeWidth=0.72;pointerEvents=0;fontSize=1;opacity=33;fillColor=none;strokeColor=#82b366;spacing=0;labelBackgroundColor=none;fontColor=none;noLabel=1;connectable=0;allowArrows=0;resizable=0;rotatable=0;recursiveResize=0;expand=0;deletable=0;cloneable=0;rotation=90;spacingTop=0;movable=0;" parent="1" vertex="1">
          <mxGeometry x="62.95200000000003" y="66.96199999999997" width="78.74" height="7.87" as="geometry" />
        </mxCell>
        <mxCell id="eiOEyKE2oN8kCugcmJj7-1123" value="" style="line;strokeWidth=0.72;pointerEvents=0;fontSize=1;opacity=33;fillColor=none;strokeColor=#82b366;spacing=0;labelBackgroundColor=none;fontColor=none;noLabel=1;connectable=0;allowArrows=0;resizable=0;rotatable=0;recursiveResize=0;expand=0;deletable=0;cloneable=0;rotation=90;spacingTop=0;movable=0;" parent="1" vertex="1">
          <mxGeometry x="66.88900000000004" y="66.929" width="78.74" height="7.87" as="geometry" />
        </mxCell>
        <mxCell id="eiOEyKE2oN8kCugcmJj7-1124" value="" style="line;strokeWidth=0.72;pointerEvents=0;fontSize=1;opacity=66;fillColor=none;strokeColor=#82b366;spacing=0;labelBackgroundColor=none;fontColor=none;noLabel=1;connectable=0;allowArrows=0;resizable=0;rotatable=0;recursiveResize=0;expand=0;deletable=0;cloneable=0;rotation=90;spacingTop=0;movable=0;" parent="1" vertex="1">
          <mxGeometry x="62.95" y="66.93" width="94.55" height="7.87" as="geometry" />
        </mxCell>
        <mxCell id="eiOEyKE2oN8kCugcmJj7-1125" value="" style="line;strokeWidth=0.72;pointerEvents=0;fontSize=1;opacity=66;fillColor=none;strokeColor=#82b366;spacing=0;labelBackgroundColor=none;fontColor=none;noLabel=1;connectable=0;allowArrows=0;resizable=0;rotatable=0;recursiveResize=0;expand=0;deletable=0;cloneable=0;spacingTop=0;movable=0;" parent="1" vertex="1">
          <mxGeometry x="23.557" y="86.61699999999999" width="94.55" height="7.87" as="geometry" />
        </mxCell>
        <mxCell id="eiOEyKE2oN8kCugcmJj7-1126" value="" style="line;strokeWidth=0.72;pointerEvents=0;fontSize=1;opacity=66;fillColor=none;strokeColor=#82b366;spacing=0;labelBackgroundColor=none;fontColor=none;noLabel=1;connectable=0;allowArrows=0;resizable=0;rotatable=0;recursiveResize=0;expand=0;deletable=0;cloneable=0;spacingTop=0;movable=0;" parent="1" vertex="1">
          <mxGeometry x="23.564" y="66.92399999999999" width="94.55" height="7.87" as="geometry" />
        </mxCell>
        <mxCell id="eiOEyKE2oN8kCugcmJj7-1127" value="" style="line;strokeWidth=0.72;pointerEvents=0;fontSize=1;opacity=66;fillColor=none;strokeColor=#82b366;spacing=0;labelBackgroundColor=none;fontColor=none;noLabel=1;connectable=0;allowArrows=0;resizable=0;rotatable=0;recursiveResize=0;expand=0;deletable=0;cloneable=0;spacingTop=0;movable=0;" parent="1" vertex="1">
          <mxGeometry x="23.561" y="47.25099999999999" width="94.55" height="7.87" as="geometry" />
        </mxCell>
        <mxCell id="eiOEyKE2oN8kCugcmJj7-1128" value="" style="line;strokeWidth=0.72;pointerEvents=0;fontSize=1;opacity=66;fillColor=none;strokeColor=#82b366;spacing=0;labelBackgroundColor=none;fontColor=none;noLabel=1;connectable=0;allowArrows=0;resizable=0;rotatable=0;recursiveResize=0;expand=0;deletable=0;cloneable=0;spacingTop=0;movable=0;" parent="1" vertex="1">
          <mxGeometry x="23.568" y="27.567999999999987" width="94.55" height="7.87" as="geometry" />
        </mxCell>
        <mxCell id="eiOEyKE2oN8kCugcmJj7-1129" value="" style="line;strokeWidth=0.72;pointerEvents=0;fontSize=1;opacity=66;fillColor=none;strokeColor=#82b366;spacing=0;labelBackgroundColor=none;fontColor=none;noLabel=1;connectable=0;allowArrows=0;resizable=0;rotatable=0;recursiveResize=0;expand=0;deletable=0;cloneable=0;rotation=90;spacingTop=0;movable=0;" parent="1" vertex="1">
          <mxGeometry x="43.266999999999996" y="66.967" width="94.55" height="7.87" as="geometry" />
        </mxCell>
        <mxCell id="eiOEyKE2oN8kCugcmJj7-1130" value="" style="line;strokeWidth=0.72;pointerEvents=0;fontSize=1;opacity=66;fillColor=none;strokeColor=#82b366;spacing=0;labelBackgroundColor=none;fontColor=none;noLabel=1;connectable=0;allowArrows=0;resizable=0;rotatable=0;recursiveResize=0;expand=0;deletable=0;cloneable=0;rotation=90;spacingTop=0;movable=0;" parent="1" vertex="1">
          <mxGeometry x="23.563999999999993" y="66.934" width="94.55" height="7.87" as="geometry" />
        </mxCell>
        <mxCell id="eiOEyKE2oN8kCugcmJj7-1131" value="" style="line;strokeWidth=0.72;pointerEvents=0;fontSize=1;opacity=66;fillColor=none;strokeColor=#82b366;spacing=0;labelBackgroundColor=none;fontColor=none;noLabel=1;connectable=0;allowArrows=0;resizable=0;rotatable=0;recursiveResize=0;expand=0;deletable=0;cloneable=0;rotation=90;spacingTop=0;movable=0;" parent="1" vertex="1">
          <mxGeometry x="3.870999999999995" y="66.97099999999999" width="94.55" height="7.87" as="geometry" />
        </mxCell>
        <mxCell id="eiOEyKE2oN8kCugcmJj7-1132" value="" style="line;strokeWidth=0.72;pointerEvents=0;fontSize=1;opacity=66;fillColor=none;strokeColor=#82b366;spacing=0;labelBackgroundColor=none;fontColor=none;noLabel=1;connectable=0;allowArrows=0;resizable=0;rotatable=0;recursiveResize=0;expand=0;deletable=0;cloneable=0;rotation=90;spacingTop=0;movable=0;" parent="1" vertex="1">
          <mxGeometry x="-15.872000000000005" y="66.96799999999999" width="94.55" height="7.87" as="geometry" />
        </mxCell>
        <mxCell id="K6fDLtCmnfh0Aq76mnqe-1" value="" style="pointerEvents=0;fontSize=1;strokeWidth=0.72;opacity=33;fillColor=#d5e8d4;strokeColor=#82b366;spacing=0;fontColor=none;noLabel=1;recursiveResize=0;connectable=0;allowArrows=0;rotatable=0;cloneable=0;deletable=0;resizable=0;movable=0;expand=0;aspect=fixed;" parent="1" vertex="1">
          <mxGeometry x="173.23" y="31.5" width="157.48" height="157.48" as="geometry" />
        </mxCell>
        <mxCell id="K6fDLtCmnfh0Aq76mnqe-7" value="" style="line;strokeWidth=0.72;pointerEvents=0;fontSize=1;opacity=33;fillColor=none;strokeColor=#82b366;spacing=0;labelBackgroundColor=none;fontColor=none;noLabel=1;connectable=0;allowArrows=0;resizable=0;rotatable=0;recursiveResize=0;expand=0;deletable=0;cloneable=0;spacingTop=0;movable=0;" parent="1" vertex="1">
          <mxGeometry x="173.23" y="31.5" width="157.48" height="7.87" as="geometry" />
        </mxCell>
        <mxCell id="K6fDLtCmnfh0Aq76mnqe-8" value="" style="line;strokeWidth=0.72;pointerEvents=0;fontSize=1;opacity=33;fillColor=none;strokeColor=#82b366;spacing=0;labelBackgroundColor=none;fontColor=none;noLabel=1;connectable=0;allowArrows=0;resizable=0;rotatable=0;recursiveResize=0;expand=0;deletable=0;cloneable=0;spacingTop=0;movable=0;" parent="1" vertex="1">
          <mxGeometry x="173.227" y="35.427" width="157.48" height="7.87" as="geometry" />
        </mxCell>
        <mxCell id="K6fDLtCmnfh0Aq76mnqe-9" value="" style="line;strokeWidth=0.72;pointerEvents=0;fontSize=1;opacity=33;fillColor=none;strokeColor=#82b366;spacing=0;labelBackgroundColor=none;fontColor=none;noLabel=1;connectable=0;allowArrows=0;resizable=0;rotatable=0;recursiveResize=0;expand=0;deletable=0;cloneable=0;spacingTop=0;movable=0;" parent="1" vertex="1">
          <mxGeometry x="173.234" y="39.373999999999995" width="157.48" height="7.87" as="geometry" />
        </mxCell>
        <mxCell id="K6fDLtCmnfh0Aq76mnqe-10" value="" style="line;strokeWidth=0.72;pointerEvents=0;fontSize=1;opacity=33;fillColor=none;strokeColor=#82b366;spacing=0;labelBackgroundColor=none;fontColor=none;noLabel=1;connectable=0;allowArrows=0;resizable=0;rotatable=0;recursiveResize=0;expand=0;deletable=0;cloneable=0;spacingTop=0;movable=0;" parent="1" vertex="1">
          <mxGeometry x="173.23100000000002" y="43.32099999999999" width="157.48" height="7.87" as="geometry" />
        </mxCell>
        <mxCell id="K6fDLtCmnfh0Aq76mnqe-11" value="" style="line;strokeWidth=0.72;pointerEvents=0;fontSize=1;opacity=33;fillColor=none;strokeColor=#82b366;spacing=0;labelBackgroundColor=none;fontColor=none;noLabel=1;connectable=0;allowArrows=0;resizable=0;rotatable=0;recursiveResize=0;expand=0;deletable=0;cloneable=0;spacingTop=0;movable=0;" parent="1" vertex="1">
          <mxGeometry x="173.23800000000003" y="47.24799999999999" width="157.48" height="7.87" as="geometry" />
        </mxCell>
        <mxCell id="K6fDLtCmnfh0Aq76mnqe-12" value="" style="line;strokeWidth=0.72;pointerEvents=0;fontSize=1;opacity=33;fillColor=none;strokeColor=#82b366;spacing=0;labelBackgroundColor=none;fontColor=none;noLabel=1;connectable=0;allowArrows=0;resizable=0;rotatable=0;recursiveResize=0;expand=0;deletable=0;cloneable=0;spacingTop=0;movable=0;" parent="1" vertex="1">
          <mxGeometry x="173.23500000000004" y="51.17499999999999" width="157.48" height="7.87" as="geometry" />
        </mxCell>
        <mxCell id="K6fDLtCmnfh0Aq76mnqe-13" value="" style="line;strokeWidth=0.72;pointerEvents=0;fontSize=1;opacity=33;fillColor=none;strokeColor=#82b366;spacing=0;labelBackgroundColor=none;fontColor=none;noLabel=1;connectable=0;allowArrows=0;resizable=0;rotatable=0;recursiveResize=0;expand=0;deletable=0;cloneable=0;spacingTop=0;movable=0;" parent="1" vertex="1">
          <mxGeometry x="173.24200000000005" y="55.121999999999986" width="157.48" height="7.87" as="geometry" />
        </mxCell>
        <mxCell id="K6fDLtCmnfh0Aq76mnqe-14" value="" style="line;strokeWidth=0.72;pointerEvents=0;fontSize=1;opacity=33;fillColor=none;strokeColor=#82b366;spacing=0;labelBackgroundColor=none;fontColor=none;noLabel=1;connectable=0;allowArrows=0;resizable=0;rotatable=0;recursiveResize=0;expand=0;deletable=0;cloneable=0;spacingTop=0;movable=0;" parent="1" vertex="1">
          <mxGeometry x="173.23900000000006" y="59.048999999999985" width="157.48" height="7.87" as="geometry" />
        </mxCell>
        <mxCell id="K6fDLtCmnfh0Aq76mnqe-15" value="" style="line;strokeWidth=0.72;pointerEvents=0;fontSize=1;opacity=33;fillColor=none;strokeColor=#82b366;spacing=0;labelBackgroundColor=none;fontColor=none;noLabel=1;connectable=0;allowArrows=0;resizable=0;rotatable=0;recursiveResize=0;expand=0;deletable=0;cloneable=0;spacingTop=0;movable=0;" parent="1" vertex="1">
          <mxGeometry x="173.24600000000007" y="62.99599999999998" width="157.48" height="7.87" as="geometry" />
        </mxCell>
        <mxCell id="K6fDLtCmnfh0Aq76mnqe-16" value="" style="line;strokeWidth=0.72;pointerEvents=0;fontSize=1;opacity=33;fillColor=none;strokeColor=#82b366;spacing=0;labelBackgroundColor=none;fontColor=none;noLabel=1;connectable=0;allowArrows=0;resizable=0;rotatable=0;recursiveResize=0;expand=0;deletable=0;cloneable=0;spacingTop=0;movable=0;" parent="1" vertex="1">
          <mxGeometry x="173.24300000000008" y="66.93299999999998" width="157.48" height="7.87" as="geometry" />
        </mxCell>
        <mxCell id="K6fDLtCmnfh0Aq76mnqe-17" value="" style="line;strokeWidth=0.72;pointerEvents=0;fontSize=1;opacity=33;fillColor=none;strokeColor=#82b366;spacing=0;labelBackgroundColor=none;fontColor=none;noLabel=1;connectable=0;allowArrows=0;resizable=0;rotatable=0;recursiveResize=0;expand=0;deletable=0;cloneable=0;spacingTop=0;movable=0;" parent="1" vertex="1">
          <mxGeometry x="173.25000000000009" y="70.86999999999998" width="157.48" height="7.87" as="geometry" />
        </mxCell>
        <mxCell id="K6fDLtCmnfh0Aq76mnqe-18" value="" style="line;strokeWidth=0.72;pointerEvents=0;fontSize=1;opacity=33;fillColor=none;strokeColor=#82b366;spacing=0;labelBackgroundColor=none;fontColor=none;noLabel=1;connectable=0;allowArrows=0;resizable=0;rotatable=0;recursiveResize=0;expand=0;deletable=0;cloneable=0;spacingTop=0;movable=0;" parent="1" vertex="1">
          <mxGeometry x="173.2470000000001" y="74.79699999999997" width="157.48" height="7.87" as="geometry" />
        </mxCell>
        <mxCell id="K6fDLtCmnfh0Aq76mnqe-19" value="" style="line;strokeWidth=0.72;pointerEvents=0;fontSize=1;opacity=33;fillColor=none;strokeColor=#82b366;spacing=0;labelBackgroundColor=none;fontColor=none;noLabel=1;connectable=0;allowArrows=0;resizable=0;rotatable=0;recursiveResize=0;expand=0;deletable=0;cloneable=0;spacingTop=0;movable=0;" parent="1" vertex="1">
          <mxGeometry x="173.2540000000001" y="78.74399999999997" width="157.48" height="7.87" as="geometry" />
        </mxCell>
        <mxCell id="K6fDLtCmnfh0Aq76mnqe-20" value="" style="line;strokeWidth=0.72;pointerEvents=0;fontSize=1;opacity=33;fillColor=none;strokeColor=#82b366;spacing=0;labelBackgroundColor=none;fontColor=none;noLabel=1;connectable=0;allowArrows=0;resizable=0;rotatable=0;recursiveResize=0;expand=0;deletable=0;cloneable=0;spacingTop=0;movable=0;" parent="1" vertex="1">
          <mxGeometry x="173.25100000000012" y="82.67099999999996" width="157.48" height="7.87" as="geometry" />
        </mxCell>
        <mxCell id="K6fDLtCmnfh0Aq76mnqe-21" value="" style="line;strokeWidth=0.72;pointerEvents=0;fontSize=1;opacity=33;fillColor=none;strokeColor=#82b366;spacing=0;labelBackgroundColor=none;fontColor=none;noLabel=1;connectable=0;allowArrows=0;resizable=0;rotatable=0;recursiveResize=0;expand=0;deletable=0;cloneable=0;spacingTop=0;movable=0;" parent="1" vertex="1">
          <mxGeometry x="173.25800000000012" y="86.61799999999997" width="157.48" height="7.87" as="geometry" />
        </mxCell>
        <mxCell id="K6fDLtCmnfh0Aq76mnqe-22" value="" style="line;strokeWidth=0.72;pointerEvents=0;fontSize=1;opacity=33;fillColor=none;strokeColor=#82b366;spacing=0;labelBackgroundColor=none;fontColor=none;noLabel=1;connectable=0;allowArrows=0;resizable=0;rotatable=0;recursiveResize=0;expand=0;deletable=0;cloneable=0;spacingTop=0;movable=0;" parent="1" vertex="1">
          <mxGeometry x="173.25500000000014" y="90.55499999999996" width="157.48" height="7.87" as="geometry" />
        </mxCell>
        <mxCell id="K6fDLtCmnfh0Aq76mnqe-23" value="" style="line;strokeWidth=0.72;pointerEvents=0;fontSize=1;opacity=33;fillColor=none;strokeColor=#82b366;spacing=0;labelBackgroundColor=none;fontColor=none;noLabel=1;connectable=0;allowArrows=0;resizable=0;rotatable=0;recursiveResize=0;expand=0;deletable=0;cloneable=0;spacingTop=0;movable=0;" parent="1" vertex="1">
          <mxGeometry x="173.26200000000014" y="94.49199999999996" width="157.48" height="7.87" as="geometry" />
        </mxCell>
        <mxCell id="K6fDLtCmnfh0Aq76mnqe-24" value="" style="line;strokeWidth=0.72;pointerEvents=0;fontSize=1;opacity=33;fillColor=none;strokeColor=#82b366;spacing=0;labelBackgroundColor=none;fontColor=none;noLabel=1;connectable=0;allowArrows=0;resizable=0;rotatable=0;recursiveResize=0;expand=0;deletable=0;cloneable=0;spacingTop=0;movable=0;" parent="1" vertex="1">
          <mxGeometry x="173.25900000000016" y="98.42899999999996" width="157.48" height="7.87" as="geometry" />
        </mxCell>
        <mxCell id="K6fDLtCmnfh0Aq76mnqe-25" value="" style="line;strokeWidth=0.72;pointerEvents=0;fontSize=1;opacity=33;fillColor=none;strokeColor=#82b366;spacing=0;labelBackgroundColor=none;fontColor=none;noLabel=1;connectable=0;allowArrows=0;resizable=0;rotatable=0;recursiveResize=0;expand=0;deletable=0;cloneable=0;spacingTop=0;movable=0;" parent="1" vertex="1">
          <mxGeometry x="173.26600000000016" y="102.36599999999996" width="157.48" height="7.87" as="geometry" />
        </mxCell>
        <mxCell id="K6fDLtCmnfh0Aq76mnqe-26" value="" style="line;strokeWidth=0.72;pointerEvents=0;fontSize=1;opacity=33;fillColor=none;strokeColor=#82b366;spacing=0;labelBackgroundColor=none;fontColor=none;noLabel=1;connectable=0;allowArrows=0;resizable=0;rotatable=0;recursiveResize=0;expand=0;deletable=0;cloneable=0;spacingTop=0;movable=0;" parent="1" vertex="1">
          <mxGeometry x="173.26300000000018" y="106.30299999999995" width="157.48" height="7.87" as="geometry" />
        </mxCell>
        <mxCell id="K6fDLtCmnfh0Aq76mnqe-27" value="" style="line;strokeWidth=0.72;pointerEvents=0;fontSize=1;opacity=33;fillColor=none;strokeColor=#82b366;spacing=0;labelBackgroundColor=none;fontColor=none;noLabel=1;connectable=0;allowArrows=0;resizable=0;rotatable=0;recursiveResize=0;expand=0;deletable=0;cloneable=0;spacingTop=0;movable=0;" parent="1" vertex="1">
          <mxGeometry x="173.27000000000018" y="110.23999999999995" width="157.48" height="7.87" as="geometry" />
        </mxCell>
        <mxCell id="K6fDLtCmnfh0Aq76mnqe-28" value="" style="line;strokeWidth=0.72;pointerEvents=0;fontSize=1;opacity=33;fillColor=none;strokeColor=#82b366;spacing=0;labelBackgroundColor=none;fontColor=none;noLabel=1;connectable=0;allowArrows=0;resizable=0;rotatable=0;recursiveResize=0;expand=0;deletable=0;cloneable=0;spacingTop=0;movable=0;" parent="1" vertex="1">
          <mxGeometry x="173.2670000000002" y="114.16699999999994" width="157.48" height="7.87" as="geometry" />
        </mxCell>
        <mxCell id="K6fDLtCmnfh0Aq76mnqe-29" value="" style="line;strokeWidth=0.72;pointerEvents=0;fontSize=1;opacity=33;fillColor=none;strokeColor=#82b366;spacing=0;labelBackgroundColor=none;fontColor=none;noLabel=1;connectable=0;allowArrows=0;resizable=0;rotatable=0;recursiveResize=0;expand=0;deletable=0;cloneable=0;spacingTop=0;movable=0;" parent="1" vertex="1">
          <mxGeometry x="173.2740000000002" y="118.11399999999995" width="157.48" height="7.87" as="geometry" />
        </mxCell>
        <mxCell id="K6fDLtCmnfh0Aq76mnqe-30" value="" style="line;strokeWidth=0.72;pointerEvents=0;fontSize=1;opacity=33;fillColor=none;strokeColor=#82b366;spacing=0;labelBackgroundColor=none;fontColor=none;noLabel=1;connectable=0;allowArrows=0;resizable=0;rotatable=0;recursiveResize=0;expand=0;deletable=0;cloneable=0;spacingTop=0;movable=0;" parent="1" vertex="1">
          <mxGeometry x="173.23100000000022" y="122.04099999999994" width="157.48" height="7.87" as="geometry" />
        </mxCell>
        <mxCell id="K6fDLtCmnfh0Aq76mnqe-31" value="" style="line;strokeWidth=0.72;pointerEvents=0;fontSize=1;opacity=33;fillColor=none;strokeColor=#82b366;spacing=0;labelBackgroundColor=none;fontColor=none;noLabel=1;connectable=0;allowArrows=0;resizable=0;rotatable=0;recursiveResize=0;expand=0;deletable=0;cloneable=0;spacingTop=0;movable=0;" parent="1" vertex="1">
          <mxGeometry x="173.27800000000025" y="125.98799999999994" width="157.48" height="7.87" as="geometry" />
        </mxCell>
        <mxCell id="K6fDLtCmnfh0Aq76mnqe-32" value="" style="line;strokeWidth=0.72;pointerEvents=0;fontSize=1;opacity=33;fillColor=none;strokeColor=#82b366;spacing=0;labelBackgroundColor=none;fontColor=none;noLabel=1;connectable=0;allowArrows=0;resizable=0;rotatable=0;recursiveResize=0;expand=0;deletable=0;cloneable=0;spacingTop=0;movable=0;" parent="1" vertex="1">
          <mxGeometry x="173.22500000000025" y="129.91499999999996" width="157.48" height="7.87" as="geometry" />
        </mxCell>
        <mxCell id="K6fDLtCmnfh0Aq76mnqe-33" value="" style="line;strokeWidth=0.72;pointerEvents=0;fontSize=1;opacity=33;fillColor=none;strokeColor=#82b366;spacing=0;labelBackgroundColor=none;fontColor=none;noLabel=1;connectable=0;allowArrows=0;resizable=0;rotatable=0;recursiveResize=0;expand=0;deletable=0;cloneable=0;spacingTop=0;movable=0;" parent="1" vertex="1">
          <mxGeometry x="173.28200000000027" y="133.86199999999997" width="157.48" height="7.87" as="geometry" />
        </mxCell>
        <mxCell id="K6fDLtCmnfh0Aq76mnqe-34" value="" style="line;strokeWidth=0.72;pointerEvents=0;fontSize=1;opacity=33;fillColor=none;strokeColor=#82b366;spacing=0;labelBackgroundColor=none;fontColor=none;noLabel=1;connectable=0;allowArrows=0;resizable=0;rotatable=0;recursiveResize=0;expand=0;deletable=0;cloneable=0;spacingTop=0;movable=0;" parent="1" vertex="1">
          <mxGeometry x="173.27900000000028" y="137.795" width="157.48" height="7.87" as="geometry" />
        </mxCell>
        <mxCell id="K6fDLtCmnfh0Aq76mnqe-35" value="" style="line;strokeWidth=0.72;pointerEvents=0;fontSize=1;opacity=33;fillColor=none;strokeColor=#82b366;spacing=0;labelBackgroundColor=none;fontColor=none;noLabel=1;connectable=0;allowArrows=0;resizable=0;rotatable=0;recursiveResize=0;expand=0;deletable=0;cloneable=0;spacingTop=0;movable=0;" parent="1" vertex="1">
          <mxGeometry x="173.22600000000028" y="141.732" width="157.48" height="7.87" as="geometry" />
        </mxCell>
        <mxCell id="K6fDLtCmnfh0Aq76mnqe-36" value="" style="line;strokeWidth=0.72;pointerEvents=0;fontSize=1;opacity=33;fillColor=none;strokeColor=#82b366;spacing=0;labelBackgroundColor=none;fontColor=none;noLabel=1;connectable=0;allowArrows=0;resizable=0;rotatable=0;recursiveResize=0;expand=0;deletable=0;cloneable=0;spacingTop=0;movable=0;" parent="1" vertex="1">
          <mxGeometry x="173.2830000000003" y="145.66899999999998" width="157.48" height="7.87" as="geometry" />
        </mxCell>
        <mxCell id="K6fDLtCmnfh0Aq76mnqe-37" value="" style="line;strokeWidth=0.72;pointerEvents=0;fontSize=1;opacity=33;fillColor=none;strokeColor=#82b366;spacing=0;labelBackgroundColor=none;fontColor=none;noLabel=1;connectable=0;allowArrows=0;resizable=0;rotatable=0;recursiveResize=0;expand=0;deletable=0;cloneable=0;spacingTop=0;movable=0;" parent="1" vertex="1">
          <mxGeometry x="173.2200000000003" y="149.606" width="157.48" height="7.87" as="geometry" />
        </mxCell>
        <mxCell id="K6fDLtCmnfh0Aq76mnqe-38" value="" style="line;strokeWidth=0.72;pointerEvents=0;fontSize=1;opacity=33;fillColor=none;strokeColor=#82b366;spacing=0;labelBackgroundColor=none;fontColor=none;noLabel=1;connectable=0;allowArrows=0;resizable=0;rotatable=0;recursiveResize=0;expand=0;deletable=0;cloneable=0;spacingTop=0;movable=0;" parent="1" vertex="1">
          <mxGeometry x="173.28700000000032" y="153.37300000000002" width="157.48" height="7.87" as="geometry" />
        </mxCell>
        <mxCell id="K6fDLtCmnfh0Aq76mnqe-39" value="" style="line;strokeWidth=0.72;pointerEvents=0;fontSize=1;opacity=33;fillColor=none;strokeColor=#82b366;spacing=0;labelBackgroundColor=none;fontColor=none;noLabel=1;connectable=0;allowArrows=0;resizable=0;rotatable=0;recursiveResize=0;expand=0;deletable=0;cloneable=0;spacingTop=0;movable=0;" parent="1" vertex="1">
          <mxGeometry x="173.28400000000033" y="157.48000000000002" width="157.48" height="7.87" as="geometry" />
        </mxCell>
        <mxCell id="K6fDLtCmnfh0Aq76mnqe-40" value="" style="line;strokeWidth=0.72;pointerEvents=0;fontSize=1;opacity=33;fillColor=none;strokeColor=#82b366;spacing=0;labelBackgroundColor=none;fontColor=none;noLabel=1;connectable=0;allowArrows=0;resizable=0;rotatable=0;recursiveResize=0;expand=0;deletable=0;cloneable=0;spacingTop=0;movable=0;" parent="1" vertex="1">
          <mxGeometry x="173.29100000000034" y="161.24700000000004" width="157.48" height="7.87" as="geometry" />
        </mxCell>
        <mxCell id="K6fDLtCmnfh0Aq76mnqe-41" value="" style="line;strokeWidth=0.72;pointerEvents=0;fontSize=1;opacity=33;fillColor=none;strokeColor=#82b366;spacing=0;labelBackgroundColor=none;fontColor=none;noLabel=1;connectable=0;allowArrows=0;resizable=0;rotatable=0;recursiveResize=0;expand=0;deletable=0;cloneable=0;spacingTop=0;movable=0;" parent="1" vertex="1">
          <mxGeometry x="173.28800000000035" y="165.35400000000004" width="157.48" height="7.87" as="geometry" />
        </mxCell>
        <mxCell id="K6fDLtCmnfh0Aq76mnqe-42" value="" style="line;strokeWidth=0.72;pointerEvents=0;fontSize=1;opacity=33;fillColor=none;strokeColor=#82b366;spacing=0;labelBackgroundColor=none;fontColor=none;noLabel=1;connectable=0;allowArrows=0;resizable=0;rotatable=0;recursiveResize=0;expand=0;deletable=0;cloneable=0;spacingTop=0;movable=0;" parent="1" vertex="1">
          <mxGeometry x="173.26500000000036" y="169.12100000000007" width="157.48" height="7.87" as="geometry" />
        </mxCell>
        <mxCell id="K6fDLtCmnfh0Aq76mnqe-43" value="" style="line;strokeWidth=0.72;pointerEvents=0;fontSize=1;opacity=33;fillColor=none;strokeColor=#82b366;spacing=0;labelBackgroundColor=none;fontColor=none;noLabel=1;connectable=0;allowArrows=0;resizable=0;rotatable=0;recursiveResize=0;expand=0;deletable=0;cloneable=0;spacingTop=0;movable=0;" parent="1" vertex="1">
          <mxGeometry x="173.29200000000037" y="173.22800000000007" width="157.48" height="7.87" as="geometry" />
        </mxCell>
        <mxCell id="K6fDLtCmnfh0Aq76mnqe-44" value="" style="line;strokeWidth=0.72;pointerEvents=0;fontSize=1;opacity=33;fillColor=none;strokeColor=#82b366;spacing=0;labelBackgroundColor=none;fontColor=none;noLabel=1;connectable=0;allowArrows=0;resizable=0;rotatable=0;recursiveResize=0;expand=0;deletable=0;cloneable=0;spacingTop=0;movable=0;" parent="1" vertex="1">
          <mxGeometry x="173.28900000000039" y="177.16500000000008" width="157.48" height="7.87" as="geometry" />
        </mxCell>
        <mxCell id="K6fDLtCmnfh0Aq76mnqe-45" value="" style="line;strokeWidth=0.72;pointerEvents=0;fontSize=1;opacity=33;fillColor=none;strokeColor=#82b366;spacing=0;labelBackgroundColor=none;fontColor=none;noLabel=1;connectable=0;allowArrows=0;resizable=0;rotatable=0;recursiveResize=0;expand=0;deletable=0;cloneable=0;spacingTop=0;movable=0;" parent="1" vertex="1">
          <mxGeometry x="173.2960000000004" y="181.11200000000008" width="157.48" height="7.87" as="geometry" />
        </mxCell>
        <mxCell id="K6fDLtCmnfh0Aq76mnqe-46" value="" style="line;strokeWidth=0.72;pointerEvents=0;fontSize=1;opacity=33;fillColor=none;strokeColor=#82b366;spacing=0;labelBackgroundColor=none;fontColor=none;noLabel=1;connectable=0;allowArrows=0;resizable=0;rotatable=0;recursiveResize=0;expand=0;deletable=0;cloneable=0;rotation=90;spacingTop=0;movable=0;" parent="1" vertex="1">
          <mxGeometry x="98.46" y="106.3" width="157.46" height="7.87" as="geometry" />
        </mxCell>
        <mxCell id="K6fDLtCmnfh0Aq76mnqe-47" value="" style="line;strokeWidth=0.72;pointerEvents=0;fontSize=1;opacity=33;fillColor=none;strokeColor=#82b366;spacing=0;labelBackgroundColor=none;fontColor=none;noLabel=1;connectable=0;allowArrows=0;resizable=0;rotatable=0;recursiveResize=0;expand=0;deletable=0;cloneable=0;rotation=90;spacingTop=0;movable=0;" parent="1" vertex="1">
          <mxGeometry x="102.297" y="106.487" width="157.46" height="7.87" as="geometry" />
        </mxCell>
        <mxCell id="K6fDLtCmnfh0Aq76mnqe-48" value="" style="line;strokeWidth=0.72;pointerEvents=0;fontSize=1;opacity=33;fillColor=none;strokeColor=#82b366;spacing=0;labelBackgroundColor=none;fontColor=none;noLabel=1;connectable=0;allowArrows=0;resizable=0;rotatable=0;recursiveResize=0;expand=0;deletable=0;cloneable=0;rotation=90;spacingTop=0;movable=0;" parent="1" vertex="1">
          <mxGeometry x="106.22399999999999" y="106.484" width="157.46" height="7.87" as="geometry" />
        </mxCell>
        <mxCell id="K6fDLtCmnfh0Aq76mnqe-49" value="" style="line;strokeWidth=0.72;pointerEvents=0;fontSize=1;opacity=33;fillColor=none;strokeColor=#82b366;spacing=0;labelBackgroundColor=none;fontColor=none;noLabel=1;connectable=0;allowArrows=0;resizable=0;rotatable=0;recursiveResize=0;expand=0;deletable=0;cloneable=0;rotation=90;spacingTop=0;movable=0;" parent="1" vertex="1">
          <mxGeometry x="110.16099999999999" y="106.49099999999999" width="157.46" height="7.87" as="geometry" />
        </mxCell>
        <mxCell id="K6fDLtCmnfh0Aq76mnqe-50" value="" style="line;strokeWidth=0.72;pointerEvents=0;fontSize=1;opacity=33;fillColor=none;strokeColor=#82b366;spacing=0;labelBackgroundColor=none;fontColor=none;noLabel=1;connectable=0;allowArrows=0;resizable=0;rotatable=0;recursiveResize=0;expand=0;deletable=0;cloneable=0;rotation=90;spacingTop=0;movable=0;" parent="1" vertex="1">
          <mxGeometry x="114.12799999999999" y="106.48799999999999" width="157.46" height="7.87" as="geometry" />
        </mxCell>
        <mxCell id="K6fDLtCmnfh0Aq76mnqe-51" value="" style="line;strokeWidth=0.72;pointerEvents=0;fontSize=1;opacity=33;fillColor=none;strokeColor=#82b366;spacing=0;labelBackgroundColor=none;fontColor=none;noLabel=1;connectable=0;allowArrows=0;resizable=0;rotatable=0;recursiveResize=0;expand=0;deletable=0;cloneable=0;rotation=90;spacingTop=0;movable=0;" parent="1" vertex="1">
          <mxGeometry x="118.11499999999998" y="106.49499999999998" width="157.46" height="7.87" as="geometry" />
        </mxCell>
        <mxCell id="K6fDLtCmnfh0Aq76mnqe-52" value="" style="line;strokeWidth=0.72;pointerEvents=0;fontSize=1;opacity=33;fillColor=none;strokeColor=#82b366;spacing=0;labelBackgroundColor=none;fontColor=none;noLabel=1;connectable=0;allowArrows=0;resizable=0;rotatable=0;recursiveResize=0;expand=0;deletable=0;cloneable=0;rotation=90;spacingTop=0;movable=0;" parent="1" vertex="1">
          <mxGeometry x="122.01199999999997" y="106.49199999999998" width="157.46" height="7.87" as="geometry" />
        </mxCell>
        <mxCell id="K6fDLtCmnfh0Aq76mnqe-53" value="" style="line;strokeWidth=0.72;pointerEvents=0;fontSize=1;opacity=33;fillColor=none;strokeColor=#82b366;spacing=0;labelBackgroundColor=none;fontColor=none;noLabel=1;connectable=0;allowArrows=0;resizable=0;rotatable=0;recursiveResize=0;expand=0;deletable=0;cloneable=0;rotation=90;spacingTop=0;movable=0;" parent="1" vertex="1">
          <mxGeometry x="125.94899999999997" y="106.27899999999997" width="157.46" height="7.87" as="geometry" />
        </mxCell>
        <mxCell id="K6fDLtCmnfh0Aq76mnqe-54" value="" style="line;strokeWidth=0.72;pointerEvents=0;fontSize=1;opacity=33;fillColor=none;strokeColor=#82b366;spacing=0;labelBackgroundColor=none;fontColor=none;noLabel=1;connectable=0;allowArrows=0;resizable=0;rotatable=0;recursiveResize=0;expand=0;deletable=0;cloneable=0;rotation=90;spacingTop=0;movable=0;" parent="1" vertex="1">
          <mxGeometry x="129.87599999999998" y="106.27599999999997" width="157.46" height="7.87" as="geometry" />
        </mxCell>
        <mxCell id="K6fDLtCmnfh0Aq76mnqe-55" value="" style="line;strokeWidth=0.72;pointerEvents=0;fontSize=1;opacity=33;fillColor=none;strokeColor=#82b366;spacing=0;labelBackgroundColor=none;fontColor=none;noLabel=1;connectable=0;allowArrows=0;resizable=0;rotatable=0;recursiveResize=0;expand=0;deletable=0;cloneable=0;rotation=90;spacingTop=0;movable=0;" parent="1" vertex="1">
          <mxGeometry x="133.813" y="106.30299999999997" width="157.46" height="7.87" as="geometry" />
        </mxCell>
        <mxCell id="K6fDLtCmnfh0Aq76mnqe-56" value="" style="line;strokeWidth=0.72;pointerEvents=0;fontSize=1;opacity=33;fillColor=none;strokeColor=#82b366;spacing=0;labelBackgroundColor=none;fontColor=none;noLabel=1;connectable=0;allowArrows=0;resizable=0;rotatable=0;recursiveResize=0;expand=0;deletable=0;cloneable=0;rotation=90;spacingTop=0;movable=0;" parent="1" vertex="1">
          <mxGeometry x="137.76" y="106.29999999999997" width="157.46" height="7.87" as="geometry" />
        </mxCell>
        <mxCell id="K6fDLtCmnfh0Aq76mnqe-57" value="" style="line;strokeWidth=0.72;pointerEvents=0;fontSize=1;opacity=33;fillColor=none;strokeColor=#82b366;spacing=0;labelBackgroundColor=none;fontColor=none;noLabel=1;connectable=0;allowArrows=0;resizable=0;rotatable=0;recursiveResize=0;expand=0;deletable=0;cloneable=0;rotation=90;spacingTop=0;movable=0;" parent="1" vertex="1">
          <mxGeometry x="141.697" y="106.27699999999997" width="157.46" height="7.87" as="geometry" />
        </mxCell>
        <mxCell id="K6fDLtCmnfh0Aq76mnqe-58" value="" style="line;strokeWidth=0.72;pointerEvents=0;fontSize=1;opacity=33;fillColor=none;strokeColor=#82b366;spacing=0;labelBackgroundColor=none;fontColor=none;noLabel=1;connectable=0;allowArrows=0;resizable=0;rotatable=0;recursiveResize=0;expand=0;deletable=0;cloneable=0;rotation=90;spacingTop=0;movable=0;" parent="1" vertex="1">
          <mxGeometry x="145.63400000000001" y="106.27399999999997" width="157.46" height="7.87" as="geometry" />
        </mxCell>
        <mxCell id="K6fDLtCmnfh0Aq76mnqe-59" value="" style="line;strokeWidth=0.72;pointerEvents=0;fontSize=1;opacity=33;fillColor=none;strokeColor=#82b366;spacing=0;labelBackgroundColor=none;fontColor=none;noLabel=1;connectable=0;allowArrows=0;resizable=0;rotatable=0;recursiveResize=0;expand=0;deletable=0;cloneable=0;rotation=90;spacingTop=0;movable=0;" parent="1" vertex="1">
          <mxGeometry x="149.56100000000004" y="106.27099999999996" width="157.46" height="7.87" as="geometry" />
        </mxCell>
        <mxCell id="K6fDLtCmnfh0Aq76mnqe-60" value="" style="line;strokeWidth=0.72;pointerEvents=0;fontSize=1;opacity=33;fillColor=none;strokeColor=#82b366;spacing=0;labelBackgroundColor=none;fontColor=none;noLabel=1;connectable=0;allowArrows=0;resizable=0;rotatable=0;recursiveResize=0;expand=0;deletable=0;cloneable=0;rotation=90;spacingTop=0;movable=0;" parent="1" vertex="1">
          <mxGeometry x="153.49800000000005" y="106.27799999999996" width="157.46" height="7.87" as="geometry" />
        </mxCell>
        <mxCell id="K6fDLtCmnfh0Aq76mnqe-61" value="" style="line;strokeWidth=0.72;pointerEvents=0;fontSize=1;opacity=33;fillColor=none;strokeColor=#82b366;spacing=0;labelBackgroundColor=none;fontColor=none;noLabel=1;connectable=0;allowArrows=0;resizable=0;rotatable=0;recursiveResize=0;expand=0;deletable=0;cloneable=0;rotation=90;spacingTop=0;movable=0;" parent="1" vertex="1">
          <mxGeometry x="157.49500000000006" y="106.27499999999995" width="157.46" height="7.87" as="geometry" />
        </mxCell>
        <mxCell id="K6fDLtCmnfh0Aq76mnqe-62" value="" style="line;strokeWidth=0.72;pointerEvents=0;fontSize=1;opacity=33;fillColor=none;strokeColor=#82b366;spacing=0;labelBackgroundColor=none;fontColor=none;noLabel=1;connectable=0;allowArrows=0;resizable=0;rotatable=0;recursiveResize=0;expand=0;deletable=0;cloneable=0;rotation=90;spacingTop=0;movable=0;" parent="1" vertex="1">
          <mxGeometry x="161.43200000000007" y="106.28199999999995" width="157.46" height="7.87" as="geometry" />
        </mxCell>
        <mxCell id="K6fDLtCmnfh0Aq76mnqe-63" value="" style="line;strokeWidth=0.72;pointerEvents=0;fontSize=1;opacity=33;fillColor=none;strokeColor=#82b366;spacing=0;labelBackgroundColor=none;fontColor=none;noLabel=1;connectable=0;allowArrows=0;resizable=0;rotatable=0;recursiveResize=0;expand=0;deletable=0;cloneable=0;rotation=90;spacingTop=0;movable=0;" parent="1" vertex="1">
          <mxGeometry x="165.36900000000009" y="106.26899999999995" width="157.46" height="7.87" as="geometry" />
        </mxCell>
        <mxCell id="K6fDLtCmnfh0Aq76mnqe-64" value="" style="line;strokeWidth=0.72;pointerEvents=0;fontSize=1;opacity=33;fillColor=none;strokeColor=#82b366;spacing=0;labelBackgroundColor=none;fontColor=none;noLabel=1;connectable=0;allowArrows=0;resizable=0;rotatable=0;recursiveResize=0;expand=0;deletable=0;cloneable=0;rotation=90;spacingTop=0;movable=0;" parent="1" vertex="1">
          <mxGeometry x="169.3060000000001" y="106.28599999999994" width="157.46" height="7.87" as="geometry" />
        </mxCell>
        <mxCell id="K6fDLtCmnfh0Aq76mnqe-65" value="" style="line;strokeWidth=0.72;pointerEvents=0;fontSize=1;opacity=33;fillColor=none;strokeColor=#82b366;spacing=0;labelBackgroundColor=none;fontColor=none;noLabel=1;connectable=0;allowArrows=0;resizable=0;rotatable=0;recursiveResize=0;expand=0;deletable=0;cloneable=0;rotation=90;spacingTop=0;movable=0;" parent="1" vertex="1">
          <mxGeometry x="173.2230000000001" y="106.27299999999994" width="157.46" height="7.87" as="geometry" />
        </mxCell>
        <mxCell id="K6fDLtCmnfh0Aq76mnqe-66" value="" style="line;strokeWidth=0.72;pointerEvents=0;fontSize=1;opacity=33;fillColor=none;strokeColor=#82b366;spacing=0;labelBackgroundColor=none;fontColor=none;noLabel=1;connectable=0;allowArrows=0;resizable=0;rotatable=0;recursiveResize=0;expand=0;deletable=0;cloneable=0;rotation=90;spacingTop=0;movable=0;" parent="1" vertex="1">
          <mxGeometry x="177.2500000000001" y="106.28999999999994" width="157.46" height="7.87" as="geometry" />
        </mxCell>
        <mxCell id="K6fDLtCmnfh0Aq76mnqe-67" value="" style="line;strokeWidth=0.72;pointerEvents=0;fontSize=1;opacity=33;fillColor=none;strokeColor=#82b366;spacing=0;labelBackgroundColor=none;fontColor=none;noLabel=1;connectable=0;allowArrows=0;resizable=0;rotatable=0;recursiveResize=0;expand=0;deletable=0;cloneable=0;rotation=90;spacingTop=0;movable=0;" parent="1" vertex="1">
          <mxGeometry x="181.18700000000013" y="106.26699999999992" width="157.46" height="7.87" as="geometry" />
        </mxCell>
        <mxCell id="K6fDLtCmnfh0Aq76mnqe-68" value="" style="line;strokeWidth=0.72;pointerEvents=0;fontSize=1;opacity=33;fillColor=none;strokeColor=#82b366;spacing=0;labelBackgroundColor=none;fontColor=none;noLabel=1;connectable=0;allowArrows=0;resizable=0;rotatable=0;recursiveResize=0;expand=0;deletable=0;cloneable=0;rotation=90;spacingTop=0;movable=0;" parent="1" vertex="1">
          <mxGeometry x="185.12400000000014" y="106.29399999999993" width="157.46" height="7.87" as="geometry" />
        </mxCell>
        <mxCell id="K6fDLtCmnfh0Aq76mnqe-69" value="" style="line;strokeWidth=0.72;pointerEvents=0;fontSize=1;opacity=33;fillColor=none;strokeColor=#82b366;spacing=0;labelBackgroundColor=none;fontColor=none;noLabel=1;connectable=0;allowArrows=0;resizable=0;rotatable=0;recursiveResize=0;expand=0;deletable=0;cloneable=0;rotation=90;spacingTop=0;movable=0;" parent="1" vertex="1">
          <mxGeometry x="189.06100000000015" y="106.27099999999992" width="157.46" height="7.87" as="geometry" />
        </mxCell>
        <mxCell id="K6fDLtCmnfh0Aq76mnqe-70" value="" style="line;strokeWidth=0.72;pointerEvents=0;fontSize=1;opacity=33;fillColor=none;strokeColor=#82b366;spacing=0;labelBackgroundColor=none;fontColor=none;noLabel=1;connectable=0;allowArrows=0;resizable=0;rotatable=0;recursiveResize=0;expand=0;deletable=0;cloneable=0;rotation=90;spacingTop=0;movable=0;" parent="1" vertex="1">
          <mxGeometry x="192.99800000000016" y="106.29799999999992" width="157.46" height="7.87" as="geometry" />
        </mxCell>
        <mxCell id="K6fDLtCmnfh0Aq76mnqe-71" value="" style="line;strokeWidth=0.72;pointerEvents=0;fontSize=1;opacity=33;fillColor=none;strokeColor=#82b366;spacing=0;labelBackgroundColor=none;fontColor=none;noLabel=1;connectable=0;allowArrows=0;resizable=0;rotatable=0;recursiveResize=0;expand=0;deletable=0;cloneable=0;rotation=90;spacingTop=0;movable=0;" parent="1" vertex="1">
          <mxGeometry x="196.91500000000016" y="106.2649999999999" width="157.46" height="7.87" as="geometry" />
        </mxCell>
        <mxCell id="K6fDLtCmnfh0Aq76mnqe-72" value="" style="line;strokeWidth=0.72;pointerEvents=0;fontSize=1;opacity=33;fillColor=none;strokeColor=#82b366;spacing=0;labelBackgroundColor=none;fontColor=none;noLabel=1;connectable=0;allowArrows=0;resizable=0;rotatable=0;recursiveResize=0;expand=0;deletable=0;cloneable=0;rotation=90;spacingTop=0;movable=0;" parent="1" vertex="1">
          <mxGeometry x="200.85200000000017" y="106.2919999999999" width="157.46" height="7.87" as="geometry" />
        </mxCell>
        <mxCell id="K6fDLtCmnfh0Aq76mnqe-73" value="" style="line;strokeWidth=0.72;pointerEvents=0;fontSize=1;opacity=33;fillColor=none;strokeColor=#82b366;spacing=0;labelBackgroundColor=none;fontColor=none;noLabel=1;connectable=0;allowArrows=0;resizable=0;rotatable=0;recursiveResize=0;expand=0;deletable=0;cloneable=0;rotation=90;spacingTop=0;movable=0;" parent="1" vertex="1">
          <mxGeometry x="204.7890000000002" y="106.29899999999999" width="157.46" height="7.87" as="geometry" />
        </mxCell>
        <mxCell id="K6fDLtCmnfh0Aq76mnqe-74" value="" style="line;strokeWidth=0.72;pointerEvents=0;fontSize=1;opacity=33;fillColor=none;strokeColor=#82b366;spacing=0;labelBackgroundColor=none;fontColor=none;noLabel=1;connectable=0;allowArrows=0;resizable=0;rotatable=0;recursiveResize=0;expand=0;deletable=0;cloneable=0;rotation=90;spacingTop=0;movable=0;" parent="1" vertex="1">
          <mxGeometry x="208.7260000000002" y="106.29599999999999" width="157.46" height="7.87" as="geometry" />
        </mxCell>
        <mxCell id="K6fDLtCmnfh0Aq76mnqe-75" value="" style="line;strokeWidth=0.72;pointerEvents=0;fontSize=1;opacity=33;fillColor=none;strokeColor=#82b366;spacing=0;labelBackgroundColor=none;fontColor=none;noLabel=1;connectable=0;allowArrows=0;resizable=0;rotatable=0;recursiveResize=0;expand=0;deletable=0;cloneable=0;rotation=90;spacingTop=0;movable=0;" parent="1" vertex="1">
          <mxGeometry x="212.6630000000002" y="106.30299999999998" width="157.46" height="7.87" as="geometry" />
        </mxCell>
        <mxCell id="K6fDLtCmnfh0Aq76mnqe-76" value="" style="line;strokeWidth=0.72;pointerEvents=0;fontSize=1;opacity=33;fillColor=none;strokeColor=#82b366;spacing=0;labelBackgroundColor=none;fontColor=none;noLabel=1;connectable=0;allowArrows=0;resizable=0;rotatable=0;recursiveResize=0;expand=0;deletable=0;cloneable=0;rotation=90;spacingTop=0;movable=0;" parent="1" vertex="1">
          <mxGeometry x="216.60000000000022" y="106.29999999999998" width="157.46" height="7.87" as="geometry" />
        </mxCell>
        <mxCell id="K6fDLtCmnfh0Aq76mnqe-77" value="" style="line;strokeWidth=0.72;pointerEvents=0;fontSize=1;opacity=33;fillColor=none;strokeColor=#82b366;spacing=0;labelBackgroundColor=none;fontColor=none;noLabel=1;connectable=0;allowArrows=0;resizable=0;rotatable=0;recursiveResize=0;expand=0;deletable=0;cloneable=0;rotation=90;spacingTop=0;movable=0;" parent="1" vertex="1">
          <mxGeometry x="220.53700000000023" y="106.29699999999998" width="157.46" height="7.87" as="geometry" />
        </mxCell>
        <mxCell id="K6fDLtCmnfh0Aq76mnqe-78" value="" style="line;strokeWidth=0.72;pointerEvents=0;fontSize=1;opacity=33;fillColor=none;strokeColor=#82b366;spacing=0;labelBackgroundColor=none;fontColor=none;noLabel=1;connectable=0;allowArrows=0;resizable=0;rotatable=0;recursiveResize=0;expand=0;deletable=0;cloneable=0;rotation=90;spacingTop=0;movable=0;" parent="1" vertex="1">
          <mxGeometry x="224.47400000000025" y="106.30399999999997" width="157.46" height="7.87" as="geometry" />
        </mxCell>
        <mxCell id="K6fDLtCmnfh0Aq76mnqe-79" value="" style="line;strokeWidth=0.72;pointerEvents=0;fontSize=1;opacity=33;fillColor=none;strokeColor=#82b366;spacing=0;labelBackgroundColor=none;fontColor=none;noLabel=1;connectable=0;allowArrows=0;resizable=0;rotatable=0;recursiveResize=0;expand=0;deletable=0;cloneable=0;rotation=90;spacingTop=0;movable=0;" parent="1" vertex="1">
          <mxGeometry x="228.41100000000026" y="106.30099999999997" width="157.46" height="7.87" as="geometry" />
        </mxCell>
        <mxCell id="K6fDLtCmnfh0Aq76mnqe-80" value="" style="line;strokeWidth=0.72;pointerEvents=0;fontSize=1;opacity=33;fillColor=none;strokeColor=#82b366;spacing=0;labelBackgroundColor=none;fontColor=none;noLabel=1;connectable=0;allowArrows=0;resizable=0;rotatable=0;recursiveResize=0;expand=0;deletable=0;cloneable=0;rotation=90;spacingTop=0;movable=0;" parent="1" vertex="1">
          <mxGeometry x="232.34800000000027" y="106.29799999999997" width="157.46" height="7.87" as="geometry" />
        </mxCell>
        <mxCell id="K6fDLtCmnfh0Aq76mnqe-81" value="" style="line;strokeWidth=0.72;pointerEvents=0;fontSize=1;opacity=33;fillColor=none;strokeColor=#82b366;spacing=0;labelBackgroundColor=none;fontColor=none;noLabel=1;connectable=0;allowArrows=0;resizable=0;rotatable=0;recursiveResize=0;expand=0;deletable=0;cloneable=0;rotation=90;spacingTop=0;movable=0;" parent="1" vertex="1">
          <mxGeometry x="236.28500000000028" y="106.29499999999997" width="157.46" height="7.87" as="geometry" />
        </mxCell>
        <mxCell id="K6fDLtCmnfh0Aq76mnqe-82" value="" style="line;strokeWidth=0.72;pointerEvents=0;fontSize=1;opacity=33;fillColor=none;strokeColor=#82b366;spacing=0;labelBackgroundColor=none;fontColor=none;noLabel=1;connectable=0;allowArrows=0;resizable=0;rotatable=0;recursiveResize=0;expand=0;deletable=0;cloneable=0;rotation=90;spacingTop=0;movable=0;" parent="1" vertex="1">
          <mxGeometry x="240.2220000000003" y="106.30199999999996" width="157.46" height="7.87" as="geometry" />
        </mxCell>
        <mxCell id="K6fDLtCmnfh0Aq76mnqe-83" value="" style="line;strokeWidth=0.72;pointerEvents=0;fontSize=1;opacity=33;fillColor=none;strokeColor=#82b366;spacing=0;labelBackgroundColor=none;fontColor=none;noLabel=1;connectable=0;allowArrows=0;resizable=0;rotatable=0;recursiveResize=0;expand=0;deletable=0;cloneable=0;rotation=90;spacingTop=0;movable=0;" parent="1" vertex="1">
          <mxGeometry x="244.1590000000003" y="106.29899999999996" width="157.46" height="7.87" as="geometry" />
        </mxCell>
        <mxCell id="K6fDLtCmnfh0Aq76mnqe-84" value="" style="line;strokeWidth=0.72;pointerEvents=0;fontSize=1;opacity=33;fillColor=none;strokeColor=#82b366;spacing=0;labelBackgroundColor=none;fontColor=none;noLabel=1;connectable=0;allowArrows=0;resizable=0;rotatable=0;recursiveResize=0;expand=0;deletable=0;cloneable=0;rotation=90;spacingTop=0;movable=0;" parent="1" vertex="1">
          <mxGeometry x="248.09600000000032" y="106.30599999999995" width="157.46" height="7.87" as="geometry" />
        </mxCell>
        <mxCell id="K6fDLtCmnfh0Aq76mnqe-2" value="" style="line;strokeWidth=0.72;pointerEvents=0;fontSize=1;opacity=66;fillColor=none;strokeColor=#82b366;spacing=0;labelBackgroundColor=none;fontColor=none;noLabel=1;connectable=0;allowArrows=0;resizable=0;rotatable=0;recursiveResize=0;expand=0;deletable=0;cloneable=0;spacingTop=0;movable=0;" parent="1" vertex="1">
          <mxGeometry x="165.35000000000005" y="27.56" width="173.23" height="7.87" as="geometry" />
        </mxCell>
        <mxCell id="K6fDLtCmnfh0Aq76mnqe-3" value="" style="line;strokeWidth=0.72;pointerEvents=0;fontSize=1;opacity=66;fillColor=none;strokeColor=#82b366;spacing=0;labelBackgroundColor=none;fontColor=none;noLabel=1;connectable=0;allowArrows=0;resizable=0;rotatable=0;recursiveResize=0;expand=0;deletable=0;cloneable=0;spacingTop=0;movable=0;" parent="1" vertex="1">
          <mxGeometry x="165.39700000000008" y="66.967" width="173.23" height="7.87" as="geometry" />
        </mxCell>
        <mxCell id="K6fDLtCmnfh0Aq76mnqe-4" value="" style="line;strokeWidth=0.72;pointerEvents=0;fontSize=1;opacity=66;fillColor=none;strokeColor=#82b366;spacing=0;labelBackgroundColor=none;fontColor=none;noLabel=1;connectable=0;allowArrows=0;resizable=0;rotatable=0;recursiveResize=0;expand=0;deletable=0;cloneable=0;spacingTop=0;movable=0;" parent="1" vertex="1">
          <mxGeometry x="165.35400000000007" y="106.484" width="173.23" height="7.87" as="geometry" />
        </mxCell>
        <mxCell id="K6fDLtCmnfh0Aq76mnqe-5" value="" style="line;strokeWidth=0.72;pointerEvents=0;fontSize=1;opacity=66;fillColor=none;strokeColor=#82b366;spacing=0;labelBackgroundColor=none;fontColor=none;noLabel=1;connectable=0;allowArrows=0;resizable=0;rotatable=0;recursiveResize=0;expand=0;deletable=0;cloneable=0;spacingTop=0;movable=0;" parent="1" vertex="1">
          <mxGeometry x="165.35100000000008" y="145.50099999999998" width="173.23" height="7.87" as="geometry" />
        </mxCell>
        <mxCell id="K6fDLtCmnfh0Aq76mnqe-6" value="" style="line;strokeWidth=0.72;pointerEvents=0;fontSize=1;opacity=66;fillColor=none;strokeColor=#82b366;spacing=0;labelBackgroundColor=none;fontColor=none;noLabel=1;connectable=0;allowArrows=0;resizable=0;rotatable=0;recursiveResize=0;expand=0;deletable=0;cloneable=0;spacingTop=0;movable=0;" parent="1" vertex="1">
          <mxGeometry x="165.3980000000001" y="185.03799999999998" width="173.23" height="7.87" as="geometry" />
        </mxCell>
        <mxCell id="K6fDLtCmnfh0Aq76mnqe-85" value="" style="line;strokeWidth=0.72;pointerEvents=0;fontSize=1;opacity=66;fillColor=none;strokeColor=#82b366;spacing=0;labelBackgroundColor=none;fontColor=none;noLabel=1;connectable=0;allowArrows=0;resizable=0;rotatable=0;recursiveResize=0;expand=0;deletable=0;cloneable=0;rotation=90;spacingTop=0;movable=0;" parent="1" vertex="1">
          <mxGeometry x="86.65" y="106.27" width="173.23" height="7.87" as="geometry" />
        </mxCell>
        <mxCell id="K6fDLtCmnfh0Aq76mnqe-86" value="" style="line;strokeWidth=0.72;pointerEvents=0;fontSize=1;opacity=66;fillColor=none;strokeColor=#82b366;spacing=0;labelBackgroundColor=none;fontColor=none;noLabel=1;connectable=0;allowArrows=0;resizable=0;rotatable=0;recursiveResize=0;expand=0;deletable=0;cloneable=0;rotation=90;spacingTop=0;movable=0;" parent="1" vertex="1">
          <mxGeometry x="125.927" y="106.267" width="173.23" height="7.87" as="geometry" />
        </mxCell>
        <mxCell id="K6fDLtCmnfh0Aq76mnqe-87" value="" style="line;strokeWidth=0.72;pointerEvents=0;fontSize=1;opacity=66;fillColor=none;strokeColor=#82b366;spacing=0;labelBackgroundColor=none;fontColor=none;noLabel=1;connectable=0;allowArrows=0;resizable=0;rotatable=0;recursiveResize=0;expand=0;deletable=0;cloneable=0;rotation=90;spacingTop=0;movable=0;" parent="1" vertex="1">
          <mxGeometry x="165.424" y="106.264" width="173.23" height="7.87" as="geometry" />
        </mxCell>
        <mxCell id="K6fDLtCmnfh0Aq76mnqe-88" value="" style="line;strokeWidth=0.72;pointerEvents=0;fontSize=1;opacity=66;fillColor=none;strokeColor=#82b366;spacing=0;labelBackgroundColor=none;fontColor=none;noLabel=1;connectable=0;allowArrows=0;resizable=0;rotatable=0;recursiveResize=0;expand=0;deletable=0;cloneable=0;rotation=90;spacingTop=0;movable=0;" parent="1" vertex="1">
          <mxGeometry x="204.77100000000002" y="106.261" width="173.23" height="7.87" as="geometry" />
        </mxCell>
        <mxCell id="K6fDLtCmnfh0Aq76mnqe-89" value="" style="line;strokeWidth=0.72;pointerEvents=0;fontSize=1;opacity=66;fillColor=none;strokeColor=#82b366;spacing=0;labelBackgroundColor=none;fontColor=none;noLabel=1;connectable=0;allowArrows=0;resizable=0;rotatable=0;recursiveResize=0;expand=0;deletable=0;cloneable=0;rotation=90;spacingTop=0;movable=0;" parent="1" vertex="1">
          <mxGeometry x="244.15800000000002" y="106.258" width="173.23" height="7.87" as="geometry" />
        </mxCell>
        <mxCell id="K6fDLtCmnfh0Aq76mnqe-90" value="10ãŽœ" style="text;strokeColor=none;fillColor=#eeeeee;align=center;verticalAlign=middle;spacingLeft=0;spacingRight=0;overflow=hidden;points=[[0,0.5],[1,0.5]];portConstraint=eastwest;rotatable=0;labelBackgroundColor=none;pointerEvents=0;fontSize=8;opacity=66;strokeWidth=0.5;spacing=-1;textOpacity=66;fontStyle=2;fontFamily=Verdana;spacingBottom=0;spacingTop=0;labelPosition=center;verticalLabelPosition=middle;connectable=0;allowArrows=0;recursiveResize=0;expand=0;movable=0;resizable=0;cloneable=0;deletable=0;resizeWidth=0;" parent="1" vertex="1">
          <mxGeometry x="292.1254" y="179.92090000000002" width="37.795199999999994" height="7.0866" as="geometry" />
        </mxCell>
        <mxCell id="eiOEyKE2oN8kCugcmJj7-1135" value="" style="rounded=0;whiteSpace=wrap;html=1;labelBackgroundColor=none;pointerEvents=0;fontFamily=Verdana;fontSize=5;fontColor=none;strokeWidth=1.4;fillColor=none;align=center;verticalAlign=middle;strokeColor=#FF0000;deletable=0;cloneable=0;rotatable=0;resizable=0;movable=0;expand=0;recursiveResize=0;allowArrows=0;connectable=0;" parent="1" vertex="1">
          <mxGeometry x="55.12" y="59.06" width="15.75" height="23.62" as="geometry" />
        </mxCell>
        <mxCell id="eiOEyKE2oN8kCugcmJj7-1138" value="" style="line;strokeWidth=1.4;pointerEvents=0;fontSize=1;fillColor=none;strokeColor=#FF0000;spacing=0;labelBackgroundColor=none;fontColor=none;noLabel=1;connectable=0;allowArrows=0;resizable=0;rotatable=0;recursiveResize=0;expand=0;deletable=0;cloneable=0;rotation=90;spacingTop=0;movable=0;" parent="1" vertex="1">
          <mxGeometry x="58.985" y="51.187" width="7.874" height="7.874" as="geometry" />
        </mxCell>
        <mxCell id="eiOEyKE2oN8kCugcmJj7-1139" value="" style="verticalLabelPosition=bottom;verticalAlign=top;html=1;shape=mxgraph.basic.polygon;polyCoords=[[0,0.2],[1,0],[1,0.2],[1,0.4],[1,0.6],[1,0.8],[1,1],[0,0.8]];polyline=1;fillColor=none;labelBackgroundColor=none;pointerEvents=0;fontFamily=Verdana;fontSize=5;fontColor=none;strokeColor=#FF0000;strokeWidth=1.4;deletable=0;cloneable=0;rotatable=0;resizable=0;movable=0;expand=0;recursiveResize=0;allowArrows=0;connectable=0;" parent="1" vertex="1">
          <mxGeometry x="70.87" y="51.18" width="15.74" height="39.37" as="geometry" />
        </mxCell>
        <mxCell id="eiOEyKE2oN8kCugcmJj7-1140" value="" style="line;strokeWidth=1.4;pointerEvents=0;fontSize=1;fillColor=none;strokeColor=#FF0000;spacing=0;labelBackgroundColor=none;fontColor=none;noLabel=1;connectable=0;allowArrows=0;resizable=0;rotatable=0;recursiveResize=0;expand=0;deletable=0;cloneable=0;rotation=90;spacingTop=0;movable=0;" parent="1" vertex="1">
          <mxGeometry x="59.062" y="82.67399999999999" width="7.874" height="7.874" as="geometry" />
        </mxCell>
        <mxCell id="K6fDLtCmnfh0Aq76mnqe-91" value="" style="verticalLabelPosition=bottom;verticalAlign=top;html=1;shape=mxgraph.basic.polygon;polyCoords=[[0,0.2],[1,0],[1,0.2],[1,0.4],[1,0.6],[1,0.8],[1,1],[0,0.8]];polyline=1;fillColor=none;labelBackgroundColor=none;pointerEvents=0;fontFamily=Verdana;fontSize=5;fontColor=none;strokeColor=#FF0000;strokeWidth=2.8;deletable=0;cloneable=0;rotatable=0;resizable=0;movable=0;expand=0;recursiveResize=0;allowArrows=0;connectable=0;" parent="1" vertex="1">
          <mxGeometry x="252.04700000000003" y="71.059" width="31.496" height="78.74" as="geometry" />
        </mxCell>
        <mxCell id="K6fDLtCmnfh0Aq76mnqe-92" value="" style="rounded=0;whiteSpace=wrap;html=1;labelBackgroundColor=none;pointerEvents=0;fontFamily=Verdana;fontSize=5;fontColor=none;strokeWidth=2.8;fillColor=none;align=center;verticalAlign=middle;strokeColor=#FF0000;deletable=0;cloneable=0;rotatable=0;resizable=0;movable=0;expand=0;recursiveResize=0;allowArrows=0;connectable=0;" parent="1" vertex="1">
          <mxGeometry x="220.53699999999998" y="86.56700000000001" width="31.496" height="47.244" as="geometry" />
        </mxCell>
        <mxCell id="K6fDLtCmnfh0Aq76mnqe-93" value="" style="line;strokeWidth=2.8;pointerEvents=0;fontSize=1;fillColor=none;strokeColor=#FF0000;spacing=0;labelBackgroundColor=none;fontColor=none;noLabel=1;connectable=0;allowArrows=0;resizable=0;rotatable=0;recursiveResize=0;expand=0;deletable=0;cloneable=0;rotation=90;spacingTop=0;movable=0;" parent="1" vertex="1">
          <mxGeometry x="228.35199999999998" y="74.839" width="15.748" height="7.874" as="geometry" />
        </mxCell>
        <mxCell id="K6fDLtCmnfh0Aq76mnqe-94" value="" style="line;strokeWidth=2.8;pointerEvents=0;fontSize=1;fillColor=none;strokeColor=#FF0000;spacing=0;labelBackgroundColor=none;fontColor=none;noLabel=1;connectable=0;allowArrows=0;resizable=0;rotatable=0;recursiveResize=0;expand=0;deletable=0;cloneable=0;rotation=90;spacingTop=0;movable=0;" parent="1" vertex="1">
          <mxGeometry x="228.349" y="137.795" width="15.748" height="7.874" as="geometry" />
        </mxCell>
        <mxCell id="KJBuVPOn3iXIMAui22nR-1" value="" style="rounded=0;whiteSpace=wrap;html=1;fillColor=#fff2cc;gradientDirection=radial;opacity=15;strokeColor=none;recursiveResize=0;expand=0;movable=0;resizable=0;rotatable=0;cloneable=0;deletable=0;allowArrows=0;connectable=0;" vertex="1" parent="1">
          <mxGeometry x="15.75" y="15.75" width="330.71" height="188.97" as="geometry" />
        </mxCell>
        <mxCell id="3NRWo36qDZ4Hj2I7HavF-1" value="oben:&lt;span style=&quot;white-space: pre&quot;&gt; &lt;/span&gt;10ãŽœ Modul&lt;br&gt;rechts:&lt;span style=&quot;white-space: pre&quot;&gt; &lt;/span&gt;20ãŽœ Modul" style="text;html=1;strokeColor=none;fillColor=none;align=left;verticalAlign=middle;whiteSpace=wrap;rounded=0;labelPosition=center;verticalLabelPosition=middle;spacing=0;opacity=66;gradientDirection=radial;" parent="1" vertex="1">
          <mxGeometry x="31.496" y="157.48" width="125.98" height="31.5" as="geometry" />
        </mxCell>
      </root>
    </mxGraphModel>
  </diagram>
</mxfile>
